<?xml version="1.0" standalone="no"?>
<!DOCTYPE svg PUBLIC "-//W3C//DTD SVG 20010904//EN"
 "http://www.w3.org/TR/2001/REC-SVG-20010904/DTD/svg10.dtd">
<svg version="1.0" xmlns="http://www.w3.org/2000/svg"
 width="220.000000pt" height="220.000000pt" viewBox="0 0 220.000000 220.000000"
 preserveAspectRatio="xMidYMid meet">
<metadata>
Created by potrace 1.14, written by Peter Selinger 2001-2017
</metadata>
<g transform="translate(0.000000,220.000000) scale(0.100000,-0.100000)"
fill="#000000" stroke="none">
<path d="M1235 1943 c-208 -32 -391 -119 -503 -236 -42 -45 -53 -52 -63 -41
-6 7 -25 16 -43 19 -29 5 -52 7 -181 19 -51 5 -150 16 -195 21 -14 2 -54 7
-90 11 -176 21 -188 -9 -91 -229 32 -73 87 -201 122 -285 35 -85 71 -157 80
-162 29 -16 55 1 89 56 18 30 37 57 42 60 7 4 78 -43 98 -66 25 -28 370 -208
370 -193 0 3 6 1 13 -5 11 -9 159 -59 200 -67 10 -2 26 -6 35 -9 62 -19 253
-37 377 -36 160 1 303 32 438 95 55 25 127 55 133 55 2 0 4 -13 4 -30 0 -41
-28 -110 -59 -143 -30 -33 -165 -99 -236 -117 -136 -33 -188 -38 -374 -35
-173 3 -195 5 -276 27 -22 5 -48 12 -59 14 -48 9 -129 46 -289 132 -44 23 -66
20 -98 -14 -21 -22 -22 -33 -23 -161 -1 -135 0 -139 28 -186 45 -76 128 -134
267 -189 139 -56 271 -78 474 -81 97 -2 199 7 330 28 86 13 373 115 408 143
24 21 21 65 -7 95 -27 29 -57 29 -129 -2 -23 -10 -55 -22 -72 -26 -37 -10 -35
-10 -66 -22 -46 -20 -233 -62 -304 -69 -198 -19 -382 -4 -526 43 -184 60 -277
140 -281 243 -2 50 -1 50 74 13 100 -49 253 -99 308 -101 8 0 44 -4 78 -10 35
-5 141 -8 235 -6 193 3 228 7 327 35 25 7 47 13 50 14 74 17 199 85 249 134
69 68 88 126 90 268 2 101 0 114 -19 133 -31 31 -65 25 -205 -39 -193 -89
-345 -126 -490 -122 -145 5 -221 11 -305 26 -132 23 -321 101 -480 199 -51 31
-94 56 -96 56 -8 0 -115 81 -153 116 -53 47 -92 49 -114 7 l-15 -27 -14 30
c-23 44 -118 269 -118 278 0 4 24 5 53 2 28 -3 77 -8 107 -12 30 -3 69 -7 85
-9 17 -2 35 -4 42 -4 8 -1 6 -14 -7 -43 l-19 -42 57 -44 c89 -69 161 -116 237
-155 81 -40 195 -88 195 -81 0 3 9 0 19 -6 27 -14 209 -59 326 -80 120 -22
347 -19 425 5 8 2 33 7 55 11 64 9 216 63 260 91 85 55 146 136 159 213 25
138 -6 236 -100 318 -86 76 -287 154 -436 168 -78 8 -368 13 -403 7z m360
-137 c17 -2 50 -7 75 -10 172 -23 316 -93 360 -175 34 -65 18 -192 -32 -247
-22 -25 -156 -93 -195 -100 -15 -3 -29 -7 -33 -9 -18 -11 -198 -35 -280 -37
-169 -3 -305 20 -491 83 -105 36 -317 135 -366 171 l-31 24 33 58 c29 51 33
55 38 34 7 -26 58 -51 85 -41 9 4 42 29 72 56 66 59 164 118 248 151 34 14 62
23 62 21 0 -2 15 1 33 6 17 5 52 12 77 16 25 3 47 7 49 9 5 4 254 -4 296 -10z"/>
<path d="M1290 1699 c-19 -4 -56 -9 -81 -12 -58 -7 -165 -50 -197 -80 -50 -46
-48 -98 6 -144 28 -24 122 -59 183 -69 102 -16 308 -21 383 -9 23 4 55 9 71
11 86 14 165 48 198 86 39 46 10 121 -61 157 -41 20 -149 49 -220 57 -71 9
-243 11 -282 3z m329 -116 c130 -25 170 -61 89 -79 -13 -3 -34 -8 -48 -11 -14
-3 -43 -6 -66 -7 -22 -1 -44 -4 -50 -7 -12 -6 -200 -3 -280 4 -78 7 -151 26
-164 42 -7 9 0 16 28 29 94 43 341 57 491 29z"/>
</g>
</svg>
